<svg width="40" height="40" viewBox="0 0 100 100" xmlns="http://www.w3.org/2000/svg">
  <defs>
    <!-- Bronze gradient -->
    <linearGradient id="bronze-metal-gradient" x1="0%" y1="0%" x2="100%" y2="100%">
      <stop offset="0%" style="stop-color: #cd7f32; stop-opacity: 1" />
      <stop offset="70%" style="stop-color: #7c503a; stop-opacity: 1" />
      <stop offset="100%" style="stop-color: #4a2c20; stop-opacity: 1" />
    </linearGradient>
    
    <!-- Glowing edge effect -->
    <radialGradient id="glowing-edge" cx="50%" cy="50%" r="50%">
      <stop offset="30%" style="stop-color: #ff9933; stop-opacity: 0.8" />
      <stop offset="100%" style="stop-color: #000000; stop-opacity: 0" />
    </radialGradient>
  </defs>
  
  <!-- Outer rim with riveted look -->
  <circle cx="50" cy="50" r="48" fill="url(#bronze-metal-gradient)" stroke="#333333" stroke-width="2" />
  <g fill="url(#glowing-edge)">
    <!-- Angular teeth for a more mechanical look -->
    <rect x="10" y="45" width="8" height="5" transform="rotate(0 50 50)" />
    <rect x="10" y="45" width="8" height="5" transform="rotate(30 50 50)" />
    <rect x="10" y="45" width="8" height="5" transform="rotate(60 50 50)" />
    <rect x="10" y="45" width="8" height="5" transform="rotate(90 50 50)" />
    <rect x="10" y="45" width="8" height="5" transform="rotate(120 50 50)" />
    <rect x="10" y="45" width="8" height="5" transform="rotate(150 50 50)" />
    <rect x="10" y="45" width="8" height="5" transform="rotate(180 50 50)" />
    <rect x="10" y="45" width="8" height="5" transform="rotate(210 50 50)" />
    <rect x="10" y="45" width="8" height="5" transform="rotate(240 50 50)" />
    <rect x="10" y="45" width="8" height="5" transform="rotate(270 50 50)" />
    <rect x="10" y="45" width="8" height="5" transform="rotate(300 50 50)" />
    <rect x="10" y="45" width="8" height="5" transform="rotate(330 50 50)" />
  </g>

  <!-- Inner ring with rivets -->
  <circle cx="50" cy="50" r="30" fill="rgba(205, 127, 50, 0.5)" stroke="#4B3621" stroke-width="1.5" />
  <g transform="translate(50, 50)">
    <!-- Rivet details -->
    <circle cx="-15" cy="-15" r="1.5" fill="#7c503a" />
    <circle cx="15" cy="-15" r="1.5" fill="#7c503a" />
    <circle cx="-15" cy="15" r="1.5" fill="#7c503a" />
    <circle cx="15" cy="15" r="1.5" fill="#7c503a" />
  </g>

  <!-- Center glow detail -->
  <circle cx="50" cy="50" r="6" fill="url(#glowing-edge)" />
  <circle cx="50" cy="50" r="3" fill="#ff9933" />
</svg>
