<svg width="40" height="40" viewBox="0 0 100 100" xmlns="http://www.w3.org/2000/svg">
  <defs>
    <!-- Vintage brass and copper gradient -->
    <linearGradient id="vintage-metal-gradient" x1="0%" y1="0%" x2="100%" y2="100%">
      <stop offset="0%" style="stop-color: #b87333; stop-opacity: 1" />
      <stop offset="70%" style="stop-color: #704214; stop-opacity: 1" />
      <stop offset="100%" style="stop-color: #4a2c20; stop-opacity: 1" />
    </linearGradient>
    
    <!-- Neon glow for accents -->
    <radialGradient id="neon-glow" cx="50%" cy="50%" r="50%">
      <stop offset="30%" style="stop-color: #ffcc00; stop-opacity: 0.8" />
      <stop offset="100%" style="stop-color: #000000; stop-opacity: 0" />
    </radialGradient>
  </defs>
  
  <!-- Outer rim with riveted gears -->
  <circle cx="50" cy="50" r="48" fill="url(#vintage-metal-gradient)" stroke="#333333" stroke-width="2" />
  <g fill="url(#neon-glow)">
    <!-- Steampunk gears as teeth -->
    <rect x="10" y="45" width="8" height="6" transform="rotate(0 50 50)" />
    <rect x="10" y="45" width="8" height="6" transform="rotate(30 50 50)" />
    <rect x="10" y="45" width="8" height="6" transform="rotate(60 50 50)" />
    <rect x="10" y="45" width="8" height="6" transform="rotate(90 50 50)" />
    <rect x="10" y="45" width="8" height="6" transform="rotate(120 50 50)" />
    <rect x="10" y="45" width="8" height="6" transform="rotate(150 50 50)" />
    <rect x="10" y="45" width="8" height="6" transform="rotate(180 50 50)" />
    <rect x="10" y="45" width="8" height="6" transform="rotate(210 50 50)" />
    <rect x="10" y="45" width="8" height="6" transform="rotate(240 50 50)" />
    <rect x="10" y="45" width="8" height="6" transform="rotate(270 50 50)" />
    <rect x="10" y="45" width="8" height="6" transform="rotate(300 50 50)" />
    <rect x="10" y="45" width="8" height="6" transform="rotate(330 50 50)" />
  </g>

  <!-- Inner rings with brass details -->
  <circle cx="50" cy="50" r="30" fill="rgba(184, 115, 51, 0.5)" stroke="#4B3621" stroke-width="1.5" />
  <circle cx="50" cy="50" r="20" fill="rgba(255, 204, 153, 0.2)" />

  <!-- Center details with rivets and neon glow -->
  <circle cx="50" cy="50" r="6" fill="url(#neon-glow)" />
  <circle cx="35" cy="50" r="2" fill="#ffcc00" />
  <circle cx="65" cy="50" r="2" fill="#ffcc00" />
  <circle cx="50" cy="35" r="2" fill="#ffcc00" />
  <circle cx="50" cy="65" r="2" fill="#ffcc00" />
  
  <!-- Intricate concentric patterns for depth -->
  <circle cx="50" cy="50" r="45" stroke="rgba(255, 204, 153, 0.2)" stroke-width="0.5" fill="none" />
  <circle cx="50" cy="50" r="42" stroke="rgba(255, 204, 153, 0.1)" stroke-width="0.5" fill="none" />
  
  <!-- Inner gear patterns for complexity -->
  <circle cx="50" cy="50" r="10" fill="none" stroke="#704214" stroke-width="1" />
  <g transform="translate(50, 50)">
    <rect x="-1" y="-8" width="2" height="16" fill="#4a2c20" />
    <rect x="-8" y="-1" width="16" height="2" fill="#4a2c20" />
    <rect x="-5.5" y="-5.5" width="11" height="11" transform="rotate(45)" fill="none" stroke="#704214" stroke-width="1" />
  </g>
</svg>
