<svg width="100" height="100" viewBox="0 0 100 100" xmlns="http://www.w3.org/2000/svg">
  <defs>
    <linearGradient id="brass-gradient" x1="0%" y1="0%" x2="100%" y2="100%">
      <stop offset="0%" style="stop-color: #b87333; stop-opacity: 1" />
      <stop offset="50%" style="stop-color: #a05a2c; stop-opacity: 1" />
      <stop offset="100%" style="stop-color: #603813; stop-opacity: 1" />
    </linearGradient>
  </defs>

  <circle cx="50" cy="50" r="48" fill="url(#brass-gradient)" stroke="#70442a" stroke-width="2" />

  <g fill="#8b5e3c">
    <rect x="10" y="45" width="12" height="10" transform="rotate(0 50 50)" />
    <rect x="10" y="45" width="12" height="10" transform="rotate(30 50 50)" />
    <rect x="10" y="45" width="12" height="10" transform="rotate(60 50 50)" />
    <rect x="10" y="45" width="12" height="10" transform="rotate(90 50 50)" />
    <rect x="10" y="45" width="12" height="10" transform="rotate(120 50 50)" />
    <rect x="10" y="45" width="12" height="10" transform="rotate(150 50 50)" />
    <rect x="10" y="45" width="12" height="10" transform="rotate(180 50 50)" />
    <rect x="10" y="45" width="12" height="10" transform="rotate(210 50 50)" />
    <rect x="10" y="45" width="12" height="10" transform="rotate(240 50 50)" />
    <rect x="10" y="45" width="12" height="10" transform="rotate(270 50 50)" />
    <rect x="10" y="45" width="12" height="10" transform="rotate(300 50 50)" />
    <rect x="10" y="45" width="12" height="10" transform="rotate(330 50 50)" />
  </g>

  <circle cx="50" cy="50" r="30" fill="#6a4c35" stroke="#4b3621" stroke-width="2" />

  <circle cx="50" cy="50" r="10" fill="#4b3621" />
  <circle cx="35" cy="50" r="2" fill="#70442a" />
  <circle cx="65" cy="50" r="2" fill="#70442a" />
  <circle cx="50" cy="35" r="2" fill="#70442a" />
  <circle cx="50" cy="65" r="2" fill="#70442a" />
</svg>
