<svg width="100" height="100" viewBox="0 0 100 100" xmlns="http://www.w3.org/2000/svg">
  <!-- Outer Ring -->
  <circle cx="50" cy="50" r="48" fill="#4e4034" stroke="#b08d57" stroke-width="4" />

  <!-- Inner Ring with Notches -->
  <circle cx="50" cy="50" r="35" fill="#6b4f4f" stroke="#8b4513" stroke-width="3" />
  
  <!-- Indicator Notches -->
  <line x1="50" y1="5" x2="50" y2="15" stroke="#ffd700" stroke-width="2" />
  <line x1="73.5" y1="11.5" x2="68.5" y2="20" stroke="#ffd700" stroke-width="2" />
  <line x1="88" y1="31" x2="80" y2="35" stroke="#ffd700" stroke-width="2" />
  <line x1="95" y1="50" x2="85" y2="50" stroke="#ffd700" stroke-width="2" />
  <line x1="88" y1="69" x2="80" y2="65" stroke="#ffd700" stroke-width="2" />
  <line x1="73.5" y1="88.5" x2="68.5" y2="80" stroke="#ffd700" stroke-width="2" />
  <line x1="50" y1="95" x2="50" y2="85" stroke="#ffd700" stroke-width="2" />
  <line x1="26.5" y1="88.5" x2="31.5" y2="80" stroke="#ffd700" stroke-width="2" />
  <line x1="12" y1="69" x2="20" y2="65" stroke="#ffd700" stroke-width="2" />
  <line x1="5" y1="50" x2="15" y2="50" stroke="#ffd700" stroke-width="2" />
  <line x1="12" y1="31" x2="20" y2="35" stroke="#ffd700" stroke-width="2" />
  <line x1="26.5" y1="11.5" x2="31.5" y2="20" stroke="#ffd700" stroke-width="2" />

  <!-- Center Circle -->
  <circle cx="50" cy="50" r="15" fill="#b08d57" />

  <!-- Pointer -->
  <rect x="48" y="20" width="4" height="15" fill="#ffd700" />
</svg>
